PathFileType	4	(X/Y/Z)	c:/Users/goper/Files/vsCode/490R/osim_files/C08/C08_Slow_03.trc
DataRate	CameraRate	NumFrames	NumMarkers	Units                	OrigDataRate	OrigDataStartFrame	OrigNumFrames
250.00	250.00	7	36	mm	250.0	1804	2885
                Frame#	Time	LPSIS			LASIS			LTH1			LTH2			LTH3			LTH4			LLFE			LMFE			LSH1			LSH2			LSH3			LSH4			LLMAL			LMMAL			LCAL			LMTP5			LTOE			LMTP1			RPSIS			RASIS			RTH1			RTH2			RTH3			RTH4			RLFE			RMFE			RSH1			RSH2			RSH3			RSH4			RLMAL			RMMAL			RCAL			RMTP1			RTOE			RMTP5		
		X1	Y1	Z1	X2	Y2	Z2	X3	Y3	Z3	X4	Y4	Z4	X5	Y5	Z5	X6	Y6	Z6	X7	Y7	Z7	X8	Y8	Z8	X9	Y9	Z9	X10	Y10	Z10	X11	Y11	Z11	X12	Y12	Z12	X13	Y13	Z13	X14	Y14	Z14	X15	Y15	Z15	X16	Y16	Z16	X17	Y17	Z17	X18	Y18	Z18	X19	Y19	Z19	X20	Y20	Z20	X21	Y21	Z21	X22	Y22	Z22	X23	Y23	Z23	X24	Y24	Z24	X25	Y25	Z25	X26	Y26	Z26	X27	Y27	Z27	X28	Y28	Z28	X29	Y29	Z29	X30	Y30	Z30	X31	Y31	Z31	X32	Y32	Z32	X33	Y33	Z33	X34	Y34	Z34	X35	Y35	Z35	X36	Y36	Z36

1804	7.21200	-1338.06628	1049.59998	167.82175	-1544.85730	1010.39160	251.62825	-1541.57642	745.52087	333.51886	-1570.51782	673.13806	317.78940	-1599.08521	604.92096	309.61420	-1640.61255	708.63519	300.40921	-1615.52588	559.94879	301.18826	-1636.35168	550.67828	174.54784	-1572.04944	435.89139	311.77542	-1580.67334	388.81155	314.61917	-1632.92139	442.88782	319.21545	-1632.91919	396.98529	319.49496	-1619.70996	114.31979	276.07755	-1653.02893	123.39684	193.43390	-1564.80664	85.46748	214.19745	-1733.52905	63.60191	322.09869	-1794.98511	94.15044	271.22351	-1773.17102	67.90311	216.31206	-1339.14648	1049.09253	108.19336	-1533.64868	1008.21954	11.19057	-1438.46436	750.38147	-36.85844	-1426.25146	673.48273	-16.34003	-1411.03906	596.84552	-5.50590	-1499.33154	668.30713	12.08728	-1403.60278	524.48682	14.79099	-1402.20667	521.23956	140.38040	-1332.68884	449.99945	1.18137	-1332.21912	405.06589	-2.51869	-1394.13171	441.15057	7.84819	-1385.47900	397.38516	3.74813	-1287.19714	106.32875	66.31567	-1320.73596	111.81286	152.82835	-1229.07971	86.53721	138.79971	-1442.76233	44.64809	138.31438	-1459.53979	59.19387	82.96606	-1403.92603	42.31090	26.19971
1805	7.21600	-1341.84888	1049.26953	168.06436	-1548.76343	1009.75861	251.59286	-1544.02271	744.39484	333.06458	-1572.88770	672.02490	317.21005	-1601.31372	603.72772	309.14948	-1642.70020	707.30292	300.27301	-1618.24170	558.98395	300.75723	-1639.18604	549.76147	174.05789	-1577.02258	433.85632	311.42535	-1586.73071	386.98694	314.27451	-1637.72876	442.16525	318.87296	-1638.71619	396.33203	319.16299	-1632.17444	113.28369	275.83685	-1665.28015	123.29638	193.22649	-1578.04028	83.33647	214.21626	-1747.12292	64.98513	321.67389	-1808.52771	97.28984	270.90726	-1786.67798	69.86526	215.86888	-1342.85254	1048.73621	108.41370	-1537.14001	1007.79938	11.03861	-1441.27869	750.22290	-36.91217	-1428.80811	673.33557	-16.39540	-1413.36890	596.75146	-5.48122	-1501.63599	667.74432	12.00416	-1405.64502	524.40784	14.76731	-1404.54382	521.06848	140.61996	-1334.09265	450.37894	1.06329	-1333.68152	405.27490	-2.44900	-1395.75952	441.13193	7.80405	-1386.89539	397.39703	3.72636	-1287.48340	106.68911	66.36633	-1321.02344	112.07581	152.86136	-1229.62573	86.82382	138.88705	-1442.86157	44.63938	138.26897	-1459.63025	59.04245	82.91652	-1403.94263	42.27621	26.14723
1806	7.22000	-1345.64441	1048.91895	168.20728	-1552.71936	1009.11060	251.57460	-1546.43274	743.26166	332.61301	-1575.11841	670.85669	316.64783	-1603.37024	602.50024	308.69269	-1645.62695	705.97943	300.09698	-1620.43176	557.46155	300.45642	-1641.92834	548.82385	173.60471	-1581.97205	431.95654	310.97272	-1592.75024	385.41260	313.84991	-1642.48132	441.53018	318.50650	-1644.42578	395.67551	318.81607	-1644.43872	112.44628	275.46448	-1677.04150	123.23666	193.14531	-1590.88232	81.42883	213.95453	-1760.49744	66.56067	321.12631	-1821.10925	100.13114	270.34949	-1799.60791	72.55183	215.20755	-1346.44250	1048.37659	108.58392	-1540.66980	1007.35370	10.87734	-1444.08630	750.04047	-36.96658	-1431.38440	673.21722	-16.44005	-1415.25891	596.97321	-5.95934	-1503.99353	667.25867	11.92214	-1407.67273	524.34589	14.75694	-1406.39392	521.15472	140.32072	-1335.76208	450.57480	0.95575	-1335.13379	405.49316	-2.40137	-1397.41516	441.08521	7.81784	-1388.36047	397.39136	3.73721	-1287.78345	107.08371	66.34837	-1321.29370	112.35783	152.89450	-1229.48792	87.44740	138.84114	-1442.89331	44.60936	138.21986	-1459.85156	58.86369	82.69705	-1403.96851	42.24401	26.09408
1807	7.22400	-1349.41772	1048.53137	168.42766	-1556.69189	1008.51233	251.52890	-1548.81396	742.09375	332.17587	-1577.25476	669.68402	316.14880	-1605.40784	601.24561	308.28217	-1648.00061	704.52716	299.99652	-1622.86206	556.69794	299.86938	-1644.58716	547.79950	173.16936	-1587.15796	429.88940	308.43103	-1598.37390	383.60501	311.58359	-1647.12573	440.79709	318.16302	-1650.07751	395.06726	318.50803	-1656.53796	111.82640	275.04330	-1688.75916	123.28347	192.74516	-1603.51282	79.65522	213.45509	-1773.59863	68.36536	320.53946	-1833.47852	103.10065	269.59769	-1812.41357	75.23958	214.67441	-1350.18750	1047.97974	108.76202	-1544.18103	1006.87067	10.68109	-1446.95435	749.84204	-36.99266	-1433.92590	673.06525	-16.49969	-1417.58081	596.91522	-6.03667	-1506.41113	666.79486	11.78411	-1409.88196	524.09674	14.81199	-1408.62415	521.04486	140.24422	-1337.55347	450.72244	1.14677	-1336.74780	405.69733	-2.36862	-1399.07568	441.05072	7.75003	-1389.84009	397.36829	3.73579	-1288.12695	107.47496	66.38963	-1321.58020	112.62740	152.93347	-1229.71350	87.91189	138.82730	-1442.97168	44.58393	138.13092	-1459.89978	58.71466	82.70157	-1403.98059	42.19109	26.03695
1808	7.22800	-1353.36499	1048.10327	168.63966	-1560.70190	1007.97192	251.47890	-1551.12646	740.86658	331.77844	-1579.42310	668.43738	315.66693	-1607.41528	599.94324	307.93250	-1649.91223	703.16779	299.96402	-1625.20190	555.24060	299.68643	-1647.15405	546.75952	172.77281	-1592.03918	427.93750	308.17041	-1604.81055	381.98096	311.39929	-1651.77686	440.11166	317.81729	-1655.69385	394.44083	318.18619	-1668.51917	111.37267	274.56415	-1700.36963	123.52658	192.27983	-1616.40771	78.21870	212.98061	-1786.54199	70.20745	319.82864	-1844.99060	105.75414	268.77130	-1825.30383	77.72784	213.88438	-1353.91553	1047.60779	108.99758	-1547.73242	1006.41431	10.54733	-1449.74500	749.64740	-37.11235	-1436.51807	672.93347	-16.55735	-1420.38269	596.48047	-5.60099	-1509.59863	666.90039	11.65807	-1411.80920	524.04852	14.61177	-1410.76477	521.01068	140.16797	-1339.53711	450.76743	1.33834	-1338.26904	405.87524	-2.37902	-1400.84705	440.89587	7.76510	-1391.46008	397.33731	3.71155	-1288.47290	107.85868	66.39779	-1321.91577	112.90897	152.96133	-1229.95752	88.41837	138.83922	-1443.08594	44.56807	138.07626	-1460.04114	58.61724	82.62289	-1404.03772	42.15245	25.99206
1809	7.23200	-1357.24976	1047.72375	168.87233	-1564.72827	1007.40692	251.38481	-1553.48450	739.67310	331.48203	-1581.62610	667.22827	315.21664	-1609.37512	598.68768	307.63354	-1652.35413	701.73206	300.05212	-1627.65259	554.16016	299.44019	-1649.71167	545.68231	172.41736	-1596.63831	425.97839	309.78458	-1610.32751	380.38397	312.68600	-1656.39282	439.41055	317.45737	-1661.25916	393.88382	317.81284	-1680.37402	111.03107	274.00177	-1711.76562	123.91888	191.70439	-1628.45203	76.89741	212.66269	-1799.26978	72.31278	319.04974	-1857.68298	109.45313	267.75269	-1837.65283	80.64000	213.07692	-1357.65417	1047.20459	109.22072	-1551.34546	1005.99731	10.39705	-1452.64026	749.46588	-37.19095	-1439.17847	672.79321	-16.61962	-1422.38232	596.66577	-6.13579	-1511.31860	665.77478	11.39478	-1413.83374	523.99548	14.48672	-1413.11304	520.98743	140.06844	-1341.18433	451.04211	1.21762	-1338.77148	407.03430	-1.86820	-1402.49829	440.99792	7.42998	-1393.02466	397.25839	3.72221	-1288.82593	108.24915	66.41550	-1322.28894	113.20648	153.00249	-1230.24817	88.96936	138.85840	-1443.21362	44.54117	138.00325	-1460.18762	58.50139	82.53297	-1404.07263	42.11578	25.93014
1810	7.23600	-1361.20227	1047.32251	169.08986	-1568.81531	1006.84418	251.30014	-1555.82483	738.48456	331.18896	-1583.78564	666.03442	314.85220	-1611.26221	597.37640	307.37439	-1654.79980	700.26636	300.13498	-1629.99390	553.35901	299.06540	-1652.31262	544.63818	172.07756	-1601.53357	424.08057	309.52371	-1616.21423	378.79932	312.33902	-1661.00964	438.74451	317.10660	-1666.82458	393.32339	317.40125	-1691.88293	110.82742	273.34146	-1722.88721	124.49396	191.07222	-1640.52344	75.72493	211.97774	-1811.67175	74.45237	318.15155	-1869.12634	112.81161	266.70642	-1849.78040	83.76629	212.09975	-1361.50305	1046.76294	109.40559	-1554.96021	1005.54901	10.22843	-1455.44727	749.26794	-37.31359	-1441.78699	672.64520	-16.73633	-1424.76379	596.57458	-6.21424	-1513.75732	665.24530	11.15000	-1415.99854	523.94714	14.41599	-1415.55005	520.96252	140.10173	-1343.35730	451.05975	1.42096	-1340.51599	407.20078	-1.85331	-1404.32483	440.93921	7.41807	-1394.73938	397.24170	3.68808	-1289.20007	108.66672	66.42796	-1322.64514	113.49741	153.02242	-1230.80383	89.37550	138.91469	-1443.32178	44.51509	137.92924	-1460.32263	58.37103	82.44873	-1404.11377	42.10261	25.87277
